<mxfile host="65bd71144e">
    <diagram id="hEeUyhEuUHNxcRoj7Iha" name="Page-1">
        <mxGraphModel dx="1708" dy="1765" grid="1" gridSize="10" guides="1" tooltips="1" connect="1" arrows="1" fold="1" page="1" pageScale="1" pageWidth="850" pageHeight="1100" math="0" shadow="0">
            <root>
                <mxCell id="0"/>
                <mxCell id="1" parent="0"/>
                <mxCell id="79" value="" style="rounded=0;whiteSpace=wrap;html=1;shadow=0;dashed=1;strokeColor=none;fontSize=8;" parent="1" vertex="1">
                    <mxGeometry x="-25" y="51" width="1050" height="720" as="geometry"/>
                </mxCell>
                <mxCell id="68" value="" style="rounded=0;whiteSpace=wrap;html=1;shadow=0;strokeColor=#0077FF;dashed=1;" parent="1" vertex="1">
                    <mxGeometry x="30" y="460" width="940" height="260" as="geometry"/>
                </mxCell>
                <mxCell id="60" value="" style="rounded=0;whiteSpace=wrap;html=1;shadow=0;strokeColor=#0077FF;dashed=1;" parent="1" vertex="1">
                    <mxGeometry x="30" y="100" width="940" height="260" as="geometry"/>
                </mxCell>
                <mxCell id="44" value="&lt;b&gt;Git Server&lt;/b&gt;" style="rounded=0;whiteSpace=wrap;html=1;shadow=1;strokeColor=#0077FF;" parent="1" vertex="1">
                    <mxGeometry x="100" y="175" width="220" height="110" as="geometry"/>
                </mxCell>
                <mxCell id="8" value="&lt;font style=&quot;font-size: 8px;&quot;&gt;&lt;b&gt;Repligit Plugin&lt;/b&gt;&lt;/font&gt;" style="rounded=0;whiteSpace=wrap;html=1;dashed=1;strokeColor=#0077FF;" parent="1" vertex="1">
                    <mxGeometry x="240" y="245" width="80" height="40" as="geometry"/>
                </mxCell>
                <mxCell id="61" value="&lt;b&gt;Git Server&lt;/b&gt;" style="rounded=0;whiteSpace=wrap;html=1;shadow=1;strokeColor=#0077FF;" parent="1" vertex="1">
                    <mxGeometry x="390" y="175" width="220" height="110" as="geometry"/>
                </mxCell>
                <mxCell id="62" value="&lt;b style=&quot;border-color: var(--border-color); font-size: 8px;&quot;&gt;Repligit Plugin&lt;/b&gt;" style="rounded=0;whiteSpace=wrap;html=1;dashed=1;strokeColor=#0077FF;" parent="1" vertex="1">
                    <mxGeometry x="530" y="245" width="80" height="40" as="geometry"/>
                </mxCell>
                <mxCell id="63" value="&lt;b&gt;Git Server&lt;/b&gt;" style="rounded=0;whiteSpace=wrap;html=1;shadow=1;strokeColor=#0077FF;" parent="1" vertex="1">
                    <mxGeometry x="680" y="175" width="220" height="110" as="geometry"/>
                </mxCell>
                <mxCell id="64" value="&lt;b style=&quot;border-color: var(--border-color); font-size: 8px;&quot;&gt;Repligit Plugin&lt;/b&gt;" style="rounded=0;whiteSpace=wrap;html=1;dashed=1;strokeColor=#0077FF;" parent="1" vertex="1">
                    <mxGeometry x="820" y="245" width="80" height="40" as="geometry"/>
                </mxCell>
                <mxCell id="65" value="&lt;b&gt;Consul&lt;/b&gt;" style="rounded=0;whiteSpace=wrap;html=1;shadow=1;strokeColor=#0077FF;" parent="1" vertex="1">
                    <mxGeometry x="100" y="535" width="220" height="110" as="geometry"/>
                </mxCell>
                <mxCell id="66" value="&lt;b&gt;Repligit Server&lt;/b&gt;" style="rounded=0;whiteSpace=wrap;html=1;shadow=1;strokeColor=#0077FF;" parent="1" vertex="1">
                    <mxGeometry x="390" y="535" width="220" height="110" as="geometry"/>
                </mxCell>
                <mxCell id="67" value="&lt;b&gt;Grafana&lt;/b&gt;" style="rounded=0;whiteSpace=wrap;html=1;shadow=1;strokeColor=#0077FF;" parent="1" vertex="1">
                    <mxGeometry x="680" y="535" width="220" height="110" as="geometry"/>
                </mxCell>
                <mxCell id="69" value="" style="endArrow=classic;startArrow=classic;html=1;fontSize=10;exitX=1;exitY=0.5;exitDx=0;exitDy=0;entryX=0;entryY=0.5;entryDx=0;entryDy=0;startFill=1;" parent="1" source="65" target="66" edge="1">
                    <mxGeometry width="50" height="50" relative="1" as="geometry">
                        <mxPoint x="680" y="380" as="sourcePoint"/>
                        <mxPoint x="730" y="330" as="targetPoint"/>
                    </mxGeometry>
                </mxCell>
                <mxCell id="70" value="" style="endArrow=none;startArrow=classic;html=1;fontSize=10;exitX=0;exitY=0.5;exitDx=0;exitDy=0;entryX=1;entryY=0.5;entryDx=0;entryDy=0;startFill=1;endFill=0;" parent="1" source="67" target="66" edge="1">
                    <mxGeometry width="50" height="50" relative="1" as="geometry">
                        <mxPoint x="330" y="600" as="sourcePoint"/>
                        <mxPoint x="400" y="600" as="targetPoint"/>
                    </mxGeometry>
                </mxCell>
                <mxCell id="71" value="" style="shape=flexArrow;endArrow=classic;startArrow=classic;html=1;fontSize=10;exitX=0.5;exitY=0;exitDx=0;exitDy=0;entryX=0.5;entryY=1;entryDx=0;entryDy=0;strokeColor=#0077FF;" parent="1" source="68" target="60" edge="1">
                    <mxGeometry width="100" height="100" relative="1" as="geometry">
                        <mxPoint x="650" y="400" as="sourcePoint"/>
                        <mxPoint x="750" y="300" as="targetPoint"/>
                    </mxGeometry>
                </mxCell>
                <mxCell id="73" value="&lt;b&gt;Git side&lt;/b&gt;" style="text;html=1;strokeColor=none;fillColor=none;align=center;verticalAlign=middle;whiteSpace=wrap;rounded=0;shadow=0;dashed=1;fontSize=10;" parent="1" vertex="1">
                    <mxGeometry x="30" y="100" width="70" height="30" as="geometry"/>
                </mxCell>
                <mxCell id="74" value="&lt;b&gt;Replication side&lt;/b&gt;" style="text;html=1;strokeColor=none;fillColor=none;align=center;verticalAlign=middle;whiteSpace=wrap;rounded=0;shadow=0;dashed=1;fontSize=10;" parent="1" vertex="1">
                    <mxGeometry x="30" y="460" width="110" height="30" as="geometry"/>
                </mxCell>
                <mxCell id="75" value="&lt;b&gt;gRPC&lt;/b&gt;" style="text;html=1;strokeColor=none;fillColor=none;align=center;verticalAlign=middle;whiteSpace=wrap;rounded=0;shadow=0;dashed=1;fontSize=10;" parent="1" vertex="1">
                    <mxGeometry x="510" y="396" width="50" height="30" as="geometry"/>
                </mxCell>
                <mxCell id="76" value="&lt;font style=&quot;font-size: 8px;&quot;&gt;&lt;b&gt;Git Repo&lt;/b&gt;&lt;/font&gt;" style="rounded=0;whiteSpace=wrap;html=1;dashed=1;strokeColor=#0077FF;" parent="1" vertex="1">
                    <mxGeometry x="100" y="245" width="80" height="40" as="geometry"/>
                </mxCell>
                <mxCell id="77" value="&lt;font style=&quot;font-size: 8px;&quot;&gt;&lt;b&gt;Git Repo&lt;/b&gt;&lt;/font&gt;" style="rounded=0;whiteSpace=wrap;html=1;dashed=1;strokeColor=#0077FF;" parent="1" vertex="1">
                    <mxGeometry x="390" y="245" width="80" height="40" as="geometry"/>
                </mxCell>
                <mxCell id="78" value="&lt;font style=&quot;font-size: 8px;&quot;&gt;&lt;b&gt;Git Repo&lt;/b&gt;&lt;/font&gt;" style="rounded=0;whiteSpace=wrap;html=1;dashed=1;strokeColor=#0077FF;" parent="1" vertex="1">
                    <mxGeometry x="680" y="245" width="80" height="40" as="geometry"/>
                </mxCell>
            </root>
        </mxGraphModel>
    </diagram>
</mxfile>